HIERARCHY
ROOT root
{
	OFFSET	0	13.1	24.9
	CHANNELS 6  Xposition Yposition Zposition Xrotation Yrotation Zrotation
	JOINT spine_1
	{
		OFFSET	0	9.99999	0
		CHANNELS 3  Xrotation Yrotation Zrotation
		JOINT spine_2
		{
			OFFSET	0	112	-10
			CHANNELS 3  Xrotation Yrotation Zrotation
			JOINT spine_3
			{
				OFFSET	0	206.5	19.3
				CHANNELS 3  Xrotation Yrotation Zrotation
				JOINT spine_4
				{
					OFFSET	0	110.4	14.6
					CHANNELS 3  Xrotation Yrotation Zrotation
					JOINT neck_1
					{
						OFFSET	0	71.8	-50.3
						CHANNELS 3  Xrotation Yrotation Zrotation
						JOINT neck_2
						{
							OFFSET	0	86.2	-25.8
							CHANNELS 3  Xrotation Yrotation Zrotation
							JOINT head_ee
							{
								OFFSET	0	179.8	-8.7
								CHANNELS 3  Xrotation Yrotation Zrotation
								End Site
								{
									OFFSET	1	0	0
								}
							}
						}
					}
					JOINT left_clavicle
					{
						OFFSET	-43.2	22.4	-70.8
						CHANNELS 3  Xrotation Yrotation Zrotation
						JOINT left_shoulder
						{
							OFFSET	-93.9	-5.79999	48.7
							CHANNELS 3  Xrotation Yrotation Zrotation
							JOINT left_elbow
							{
								OFFSET	-291.4	-30.8	15.2
								CHANNELS 3  Xrotation Yrotation Zrotation
								JOINT left_lowarm_twist
								{
									OFFSET	-110.7	-3.89999	13.6
									CHANNELS 3  Xrotation Yrotation Zrotation
									JOINT left_hand
									{
										OFFSET	-110.7	-3.89999	13.6
										CHANNELS 3  Xrotation Yrotation Zrotation
										JOINT left_ee
										{
											OFFSET	-80.8	-5.10001	12.1
											CHANNELS 3  Xrotation Yrotation Zrotation
											End Site
											{
												OFFSET	1	0	0
											}
										}
									}
								}
							}
						}
					}
					JOINT right_clavicle
					{
						OFFSET	43.2	22.4	-70.8
						CHANNELS 3  Xrotation Yrotation Zrotation
						JOINT right_shoulder
						{
							OFFSET	93.9	-5.79999	48.7
							CHANNELS 3  Xrotation Yrotation Zrotation
							JOINT right_elbow
							{
								OFFSET	291.4	-30.8	15.2
								CHANNELS 3  Xrotation Yrotation Zrotation
								JOINT right_lowarm_twist
								{
									OFFSET	110.7	-3.89999	13.6
									CHANNELS 3  Xrotation Yrotation Zrotation
									JOINT right_hand
									{
										OFFSET	110.7	-3.89999	13.6
										CHANNELS 3  Xrotation Yrotation Zrotation
										JOINT right_ee
										{
											OFFSET	80.8	-5.10001	12.1
											CHANNELS 3  Xrotation Yrotation Zrotation
											End Site
											{
												OFFSET	1	0	0
											}
										}
									}
								}
							}
						}
					}
				}
			}
		}
	}
	JOINT left_hip
	{
		OFFSET	-82.8	-127.5	0.300001
		CHANNELS 3  Xrotation Yrotation Zrotation
		JOINT left_knee
		{
			OFFSET	-28.2	-396.7	2.2
			CHANNELS 3  Xrotation Yrotation Zrotation
			JOINT left_ankle
			{
				OFFSET	-11.7	-411.3	35.4
				CHANNELS 3  Xrotation Yrotation Zrotation
				JOINT left_toes
				{
					OFFSET	0	-60	-88.6
					CHANNELS 3  Xrotation Yrotation Zrotation
					JOINT left_foot_ee
					{
						OFFSET	-22.5	-16.5	-42.2
						CHANNELS 3  Xrotation Yrotation Zrotation
						End Site
						{
							OFFSET	1	0	0
						}
					}
				}
			}
		}
	}
	JOINT right_hip
	{
		OFFSET	82.8	-127.5	0.300001
		CHANNELS 3  Xrotation Yrotation Zrotation
		JOINT right_knee
		{
			OFFSET	28.2	-396.7	2.2
			CHANNELS 3  Xrotation Yrotation Zrotation
			JOINT right_ankle
			{
				OFFSET	11.7	-411.3	35.4
				CHANNELS 3  Xrotation Yrotation Zrotation
				JOINT right_toes
				{
					OFFSET	0	-60	-88.6
					CHANNELS 3  Xrotation Yrotation Zrotation
					JOINT right_foot_ee
					{
						OFFSET	22.5	-16.5	-42.2
						CHANNELS 3  Xrotation Yrotation Zrotation
						End Site
						{
							OFFSET	1	0	0
						}
					}
				}
			}
		}
	}
}
MOTION
Frames: 14
Frame Time: 0.02
3177.02 653.055 -1669.29 -9.79720017844 33.1248886963 9.36297323323 3.28712 0.442663 1.25742 3.28793 0.36176 1.28304 3.29576 0.160423 1.32337 3.2935 0.367394 1.28143 -9.34521 20.4067 2.41566 -9.75241 36.7804 7.51513 -0.0 0.0 -0.0 -4.63293 16.9576 -5.24144 -21.2193 -11.8299 72.6372 0.86364 -23.1621 0.176985 21.3962 0.251292 -2.70578 1.38005 8.25414 12.4626 -0.0 0.0 -0.0 14.1745 27.5154 -28.2141 -1.31551 49.5266 -60.6397 1.37301 34.2198 -0.422672 8.83764 -0.226531 1.10508 1.79678 12.4986 -6.80452 0.0 0.0 0.0 19.4411 6.17105 -15.4637 5.00917 -0.238445 -0.731287 7.55575 -12.2197 -1.15406 13.7501 -0.0 -0.0 -0.0 0.0 -0.0 -3.31899 18.83 5.89339 -16.319 -0.321306 -2.47525 26.7857 -11.6082 3.54905 6.9364 -0.0 -0.0 0.0 0.0 0.0 
3177.02 653.055 -1669.29 -9.82054480163 33.3310107464 9.405575068 3.28712 0.442663 1.25742 3.28793 0.36176 1.28304 3.29576 0.160423 1.32337 3.2935 0.367394 1.28143 -9.34521 20.4067 2.41566 -9.75241 36.7804 7.51513 -0.0 0.0 -0.0 -4.63293 16.9576 -5.24144 -21.2193 -11.8299 72.6372 0.86364 -23.1621 0.176985 21.3962 0.251292 -2.70578 1.38005 8.25414 12.4626 -0.0 0.0 -0.0 14.1745 27.5154 -28.2141 -1.31551 49.5266 -60.6397 1.37301 34.2198 -0.422672 8.83764 -0.226531 1.10508 1.79678 12.4986 -6.80452 0.0 0.0 0.0 19.4411 6.17105 -15.4637 5.00917 -0.238445 -0.731287 7.55575 -12.2197 -1.15406 13.7501 -0.0 -0.0 -0.0 0.0 -0.0 -3.31899 18.83 5.89339 -16.319 -0.321306 -2.47525 26.7857 -11.6082 3.54905 6.9364 -0.0 -0.0 0.0 0.0 0.0 
3155.22027706 658.082 -1673.6150063 -9.79069552615 34.3875639315 9.41576315647 3.14853 0.331153 1.18883 3.14928 0.254839 1.20749 3.15442 0.0633056 1.23246 3.15239 0.257141 1.207 -8.1072 20.9017 2.45254 -8.31666 37.45 7.2208 -0.0 0.0 -0.0 -4.62884 17.1693 -5.18415 -21.3083 -14.3474 71.5607 0.924881 -24.6149 0.201787 20.9825 0.25607 -2.65315 1.03398 7.07719 9.72506 -0.0 0.0 -0.0 13.7217 27.0428 -27.2213 -4.30385 48.8507 -60.6335 1.48634 36.3615 -0.488154 7.22804 -0.198021 0.901451 1.57835 11.7073 -5.67325 0.0 0.0 0.0 17.7185 7.37176 -13.468 5.76931 -0.280196 -0.840373 8.30707 -9.57549 -1.24555 13.7152 -0.0 -0.0 -0.0 0.0 -0.0 -3.00912 18.7601 6.06115 -18.7471 -0.308444 -2.84755 24.5751 -17.6711 3.34216 10.8977 -0.0 -0.0 0.0 0.0 0.0 
3155.1929118 658.082 -1673.47471273 -9.83396859544 34.7506715754 9.49202831002 3.14853 0.331153 1.18883 3.14928 0.254839 1.20749 3.15442 0.0633056 1.23246 3.15239 0.257141 1.207 -8.1072 20.9017 2.45254 -8.31666 37.45 7.2208 -0.0 0.0 -0.0 -4.62884 17.1693 -5.18415 -21.3083 -14.3474 71.5607 0.924881 -24.6149 0.201787 20.9825 0.25607 -2.65315 1.03398 7.07719 9.72506 -0.0 0.0 -0.0 13.7217 27.0428 -27.2213 -4.30385 48.8507 -60.6335 1.48634 36.3615 -0.488154 7.22804 -0.198021 0.901451 1.57835 11.7073 -5.67325 0.0 0.0 0.0 17.7185 7.37176 -13.468 5.76931 -0.280196 -0.840373 8.30707 -9.57549 -1.24555 13.7152 -0.0 -0.0 -0.0 0.0 -0.0 -3.00912 18.7601 6.06115 -18.7471 -0.308444 -2.84755 24.5751 -17.6711 3.34216 10.8977 -0.0 -0.0 0.0 0.0 0.0 
3155.15339372 658.082 -1673.26305046 -9.90063700069 35.2975637336 9.60818995638 3.14853 0.331153 1.18883 3.14928 0.254839 1.20749 3.15442 0.0633056 1.23246 3.15239 0.257141 1.207 -8.1072 20.9017 2.45254 -8.31666 37.45 7.2208 -0.0 0.0 -0.0 -4.62884 17.1693 -5.18415 -21.3083 -14.3474 71.5607 0.924881 -24.6149 0.201787 20.9825 0.25607 -2.65315 1.03398 7.07719 9.72506 -0.0 0.0 -0.0 13.7217 27.0428 -27.2213 -4.30385 48.8507 -60.6335 1.48634 36.3615 -0.488154 7.22804 -0.198021 0.901451 1.57835 11.7073 -5.67325 0.0 0.0 0.0 17.7185 7.37176 -13.468 5.76931 -0.280196 -0.840373 8.30707 -9.57549 -1.24555 13.7152 -0.0 -0.0 -0.0 0.0 -0.0 -3.00912 18.7601 6.06115 -18.7471 -0.308444 -2.84755 24.5751 -17.6711 3.34216 10.8977 -0.0 -0.0 0.0 0.0 0.0 
3118.48679682 668.092 -1677.00430655 -9.12843240427 36.702675317 8.43644372215 2.90823 0.134295 1.23198 2.90907 0.0556349 1.23803 2.91003 -0.143523 1.23094 2.90792 0.0526671 1.23816 -9.60096 21.6088 4.54506 -10.0379 37.6893 9.97893 -0.0 0.0 -0.0 -4.45315 16.8005 -4.99426 -20.1617 -17.2952 69.8345 1.04279 -27.3187 0.253426 20.6221 0.259922 -2.60727 0.528063 5.59579 5.8067 -0.0 0.0 -0.0 13.0502 26.3481 -25.7517 -8.96899 47.7068 -60.1241 1.49947 36.6024 -0.495963 5.20393 -0.154067 0.646638 1.31113 10.5295 -4.37712 0.0 0.0 0.0 15.589 8.7286 -11.0183 6.74094 -0.335669 -0.979001 5.16353 -4.45667 -0.763837 13.4602 -0.0 -0.0 -0.0 0.0 -0.0 -2.39057 19.9424 6.45763 -21.9059 -0.268127 -3.33049 21.0364 -25.8418 3.01902 16.9057 -0.0 -0.0 0.0 0.0 0.0 
3118.55018664 668.092 -1677.47091225 -9.0749854458 36.251442652 8.34654219467 2.90823 0.134295 1.23198 2.90907 0.0556349 1.23803 2.91003 -0.143523 1.23094 2.90792 0.0526671 1.23816 -9.60096 21.6088 4.54506 -10.0379 37.6893 9.97893 -0.0 0.0 -0.0 -4.45315 16.8005 -4.99426 -20.1617 -17.2952 69.8345 1.04279 -27.3187 0.253426 20.6221 0.259922 -2.60727 0.528063 5.59579 5.8067 -0.0 0.0 -0.0 13.0502 26.3481 -25.7517 -8.96899 47.7068 -60.1241 1.49947 36.6024 -0.495963 5.20393 -0.154067 0.646638 1.31113 10.5295 -4.37712 0.0 0.0 0.0 15.589 8.7286 -11.0183 6.74094 -0.335669 -0.979001 5.16353 -4.45667 -0.763837 13.4602 -0.0 -0.0 -0.0 0.0 -0.0 -2.39057 19.9424 6.45763 -21.9059 -0.268127 -3.33049 21.0364 -25.8418 3.01902 16.9057 -0.0 -0.0 0.0 0.0 0.0 
3118.60560789 668.092 -1677.85768312 -9.0315335782 35.8769831671 8.27273167333 2.90823 0.134295 1.23198 2.90907 0.0556349 1.23803 2.91003 -0.143523 1.23094 2.90792 0.0526671 1.23816 -9.60096 21.6088 4.54506 -10.0379 37.6893 9.97893 -0.0 0.0 -0.0 -4.45315 16.8005 -4.99426 -20.1617 -17.2952 69.8345 1.04279 -27.3187 0.253426 20.6221 0.259922 -2.60727 0.528063 5.59579 5.8067 -0.0 0.0 -0.0 13.0502 26.3481 -25.7517 -8.96899 47.7068 -60.1241 1.49947 36.6024 -0.495963 5.20393 -0.154067 0.646638 1.31113 10.5295 -4.37712 0.0 0.0 0.0 15.589 8.7286 -11.0183 6.74094 -0.335669 -0.979001 5.16353 -4.45667 -0.763837 13.4602 -0.0 -0.0 -0.0 0.0 -0.0 -2.39057 19.9424 6.45763 -21.9059 -0.268127 -3.33049 21.0364 -25.8418 3.01902 16.9057 -0.0 -0.0 0.0 0.0 0.0 
3088.2295046 664.503 -1675.33404054 -9.34461033621 34.5263319694 7.5127146725 3.09539 0.204028 1.0392 3.09598 0.137491 1.05008 3.09831 -0.0291009 1.05864 3.09677 0.138448 1.04995 -11.5358 22.1755 6.26089 -12.2775 38.0946 12.514 -0.0 0.0 -0.0 -4.41529 15.2274 -5.30021 -18.2495 -19.1775 68.8067 1.13832 -29.4173 0.298826 20.8604 0.257407 -2.63761 0.269601 4.31914 3.58596 -0.0 0.0 -0.0 12.8479 26.8609 -25.2226 -14.387 47.1692 -58.0617 1.52248 37.0208 -0.509749 3.26903 -0.103654 0.404625 0.940677 8.67316 -2.66942 0.0 0.0 0.0 14.0452 8.57365 -8.09995 6.5035 -0.321896 -0.94521 5.63627 -2.89974 -0.827801 14.7884 -0.0 -0.0 -0.0 0.0 -0.0 -1.14454 24.7591 8.09597 -28.73 -0.0906096 -4.3621 14.0022 -29.6248 2.11507 23.4398 -0.0 -0.0 0.0 0.0 0.0 
3066.41336404 670.806 -1679.01490521 -8.25517443162 34.6983732753 5.84532953533 2.92842 0.154087 1.30519 2.92937 0.0707293 1.31234 2.93072 -0.140063 1.30677 2.92834 0.0680559 1.31249 -10.091 22.5841 6.27309 -10.587 38.5168 12.0794 -0.0 0.0 -0.0 -3.87901 14.793 -4.52394 -18.4215 -20.3795 67.1653 1.18336 -30.3779 0.321278 19.8702 0.267027 -2.51149 0.228801 2.48475 2.561 -0.0 0.0 -0.0 12.4633 25.5243 -24.4953 -17.9955 46.6843 -57.6372 1.58629 38.1575 -0.548673 2.14165 -0.0705197 0.264433 0.711555 8.90431 -1.02299 0.0 0.0 0.0 11.5132 10.6903 -5.13019 6.8227 -0.340445 -0.990624 7.62298 -4.48747 -1.11872 14.1827 -0.0 -0.0 -0.0 0.0 -0.0 0.313917 27.0898 7.53237 -32.8929 0.0775661 -4.97866 2.52895 -30.2814 0.396554 25.7189 -0.0 -0.0 0.0 0.0 0.0 
3049.58663852 671.397 -1677.91420334 -7.63097277526 35.837856142 4.4970313332 2.90868 -0.00435417 1.27704 2.90958 -0.0856001 1.27418 2.90739 -0.288817 1.24397 2.90524 -0.0887482 1.27396 -11.2962 21.9585 5.9096 -11.9957 37.8483 12.0213 -0.0 0.0 -0.0 -3.87108 13.5027 -4.78866 -17.8535 -21.3088 66.8351 1.20572 -30.8477 0.332662 19.5877 0.269371 -2.47549 0.482743 2.72889 4.34727 -0.0 0.0 -0.0 12.4928 25.2817 -24.5899 -20.8461 45.9899 -56.044 1.44732 35.6369 -0.465221 1.53324 -0.0514935 0.189051 0.593551 7.65085 -0.760046 0.0 0.0 0.0 9.37974 11.6289 -2.75821 6.33651 -0.312293 -0.921412 10.2048 -5.45963 -1.48958 13.923 -0.0 -0.0 -0.0 0.0 -0.0 2.83964 29.1345 7.02532 -37.6867 0.326192 -5.67169 -6.04556 -30.5254 -0.96561 28.1529 -0.0 -0.0 0.0 0.0 0.0 
3039.60189183 671.836 -1679.7084091 -7.19689497634 34.8593976364 3.31596503355 2.97641 0.0357374 1.55121 2.97774 -0.0630305 1.55034 2.9756 -0.309031 1.52054 2.97238 -0.0650417 1.55026 -10.7506 22.7265 6.8559 -11.3457 38.5745 12.9268 -0.0 0.0 -0.0 -3.60504 12.4633 -4.5609 -17.619 -21.5366 65.814 1.1849 -30.4102 0.322053 19.5372 0.269772 -2.46905 0.162462 1.52038 1.71992 -0.0 0.0 -0.0 12.5116 25.8443 -24.5701 -22.91 45.5725 -56.032 1.50565 36.7151 -0.499648 0.516544 -0.0179134 0.0635381 0.498227 7.65443 -0.114961 0.0 0.0 0.0 7.9752 12.2561 -1.12483 7.58994 -0.386067 -1.09937 9.68903 -4.19102 -1.40995 14.1574 -0.0 -0.0 -0.0 0.0 -0.0 4.09745 28.7273 6.65825 -39.1321 0.412475 -5.87641 -6.17593 -29.9069 -0.982425 29.4947 -0.0 -0.0 0.0 0.0 0.0 
3039.28505265 671.836 -1673.91211833 -7.4204716524 37.253391919 3.69573817051 2.97641 0.0357374 1.55121 2.97774 -0.0630305 1.55034 2.9756 -0.309031 1.52054 2.97238 -0.0650417 1.55026 -10.7506 22.7265 6.8559 -11.3457 38.5745 12.9268 -0.0 0.0 -0.0 -3.60504 12.4633 -4.5609 -17.619 -21.5366 65.814 1.1849 -30.4102 0.322053 19.5372 0.269772 -2.46905 0.162462 1.52038 1.71992 -0.0 0.0 -0.0 12.5116 25.8443 -24.5701 -22.91 45.5725 -56.032 1.50565 36.7151 -0.499648 0.516544 -0.0179134 0.0635381 0.498227 7.65443 -0.114961 0.0 0.0 0.0 7.9752 12.2561 -1.12483 7.58994 -0.386067 -1.09937 9.68903 -4.19102 -1.40995 14.1574 -0.0 -0.0 -0.0 0.0 -0.0 4.09745 28.7273 6.65825 -39.1321 0.412475 -5.87641 -6.17593 -29.9069 -0.982425 29.4947 -0.0 -0.0 0.0 0.0 0.0 
3039.20776168 671.836 -1669.03179392 -7.63008226707 39.2652842686 4.03419183719 2.97641 0.0357374 1.55121 2.97774 -0.0630305 1.55034 2.9756 -0.309031 1.52054 2.97238 -0.0650417 1.55026 -10.7506 22.7265 6.8559 -11.3457 38.5745 12.9268 -0.0 0.0 -0.0 -3.60504 12.4633 -4.5609 -17.619 -21.5366 65.814 1.1849 -30.4102 0.322053 19.5372 0.269772 -2.46905 0.162462 1.52038 1.71992 -0.0 0.0 -0.0 12.5116 25.8443 -24.5701 -22.91 45.5725 -56.032 1.50565 36.7151 -0.499648 0.516544 -0.0179134 0.0635381 0.498227 7.65443 -0.114961 0.0 0.0 0.0 7.9752 12.2561 -1.12483 7.58994 -0.386067 -1.09937 9.68903 -4.19102 -1.40995 14.1574 -0.0 -0.0 -0.0 0.0 -0.0 4.09745 28.7273 6.65825 -39.1321 0.412475 -5.87641 -6.17593 -29.9069 -0.982425 29.4947 -0.0 -0.0 0.0 0.0 0.0 
